<svg xmlns="http://www.w3.org/2000/svg" version="1.1" xmlns:xlink="http://www.w3.org/1999/xlink" xmlns:svgjs="http://svgjs.com/svgjs" width="1920" height="1080" preserveAspectRatio="none" viewBox="0 0 1920 1080"><g mask="url(&quot;#SvgjsMask1523&quot;)" fill="none"><rect width="1920" height="1080" x="0" y="0" fill="url(#SvgjsRadialGradient1524)"></rect><path d="M300.415,599.897C390.237,600.514,469.47,542.384,511.193,462.838C550.131,388.601,539.057,300.123,495.085,228.752C453.363,161.033,379.937,122.439,300.415,120.726C217.518,118.94,133.659,149.148,90.651,220.038C46.182,293.336,53.153,384.924,94.597,459.974C137.579,537.81,211.502,599.286,300.415,599.897" fill="rgba(35, 46, 232, 0.22)" class="triangle-float3"></path><path d="M1720.039,903.127C1813.404,904.017,1903.452,856.77,1947.507,774.448C1989.473,696.028,1964.734,604.535,1921.393,526.867C1876.614,446.623,1811.903,369.136,1720.039,366.823C1625.135,364.433,1545.789,432.928,1500.319,516.264C1456.869,595.899,1455.157,691.301,1499.958,770.183C1545.323,850.058,1628.184,902.252,1720.039,903.127" fill="rgba(35, 46, 232, 0.22)" class="triangle-float1"></path><path d="M1007.224,1195.098C1068.362,1194.625,1116.412,1151.135,1149.178,1099.516C1185.197,1042.772,1216.985,974.027,1185.111,914.856C1152.142,853.653,1076.623,831.93,1007.224,835.991C944.809,839.644,892.155,878.947,862.08,933.76C833.211,986.376,832.275,1049.276,861.414,1101.742C891.447,1155.817,945.371,1195.577,1007.224,1195.098" fill="rgba(35, 46, 232, 0.22)" class="triangle-float3"></path><path d="M897.415,1253.854C969.048,1258.895,1046.752,1241.336,1084.438,1180.21C1123.582,1116.719,1109.261,1036.045,1071.28,971.851C1034.069,908.96,970.468,865.914,897.415,864.112C821.128,862.23,742.172,894.644,708.033,962.892C676.296,1026.338,712.335,1097.289,751.034,1156.745C785.269,1209.343,834.812,1249.448,897.415,1253.854" fill="rgba(35, 46, 232, 0.22)" class="triangle-float3"></path><path d="M1043.886,655.192C1104.577,656.259,1167.75,638.07,1199.103,586.094C1231.327,532.674,1225.863,463.259,1190.783,411.669C1159.353,365.448,1099.773,358.773,1043.886,357.831C985.596,356.849,920.1,357.801,888.157,406.569C853.998,458.72,864.748,527.966,897.841,580.799C928.924,630.424,985.339,654.163,1043.886,655.192" fill="rgba(35, 46, 232, 0.22)" class="triangle-float3"></path><path d="M259.557,1177.84C362.012,1185.009,478.407,1184.58,536.205,1099.68C599.32,1006.97,590.415,877.983,526.374,785.911C469.311,703.872,359.489,702.279,259.557,701.944C158.751,701.606,41.298,697.557,-10.376,784.112C-62.755,871.847,-15.059,980.872,42.72,1065.149C92.088,1137.157,172.464,1171.746,259.557,1177.84" fill="rgba(35, 46, 232, 0.22)" class="triangle-float2"></path></g><defs><mask id="SvgjsMask1523"><rect width="1920" height="1080" fill="#ffffff"></rect></mask><radialGradient cx="0%" cy="0%" r="2202.91" gradientUnits="userSpaceOnUse" id="SvgjsRadialGradient1524"><stop stop-color="rgba(73, 81, 221, 1)" offset="0.37"></stop><stop stop-color="rgba(117, 123, 229, 1)" offset="1"></stop></radialGradient><style>
            @keyframes float1 {
                0%{transform: translate(0, 0)}
                50%{transform: translate(-10px, 0)}
                100%{transform: translate(0, 0)}
            }

            .triangle-float1 {
                animation: float1 5s infinite;
            }

            @keyframes float2 {
                0%{transform: translate(0, 0)}
                50%{transform: translate(-5px, -5px)}
                100%{transform: translate(0, 0)}
            }

            .triangle-float2 {
                animation: float2 4s infinite;
            }

            @keyframes float3 {
                0%{transform: translate(0, 0)}
                50%{transform: translate(0, -10px)}
                100%{transform: translate(0, 0)}
            }

            .triangle-float3 {
                animation: float3 6s infinite;
            }
        </style></defs></svg>