<svg xmlns="http://www.w3.org/2000/svg" version="1.1" xmlns:xlink="http://www.w3.org/1999/xlink" xmlns:svgjs="http://svgjs.com/svgjs" width="1440" height="560" preserveAspectRatio="none" viewBox="0 0 1440 560"><g mask="url(&quot;#SvgjsMask1035&quot;)" fill="none"><rect width="1440" height="560" x="0" y="0" fill="rgba(95, 102, 225, 1)"></rect><path d="M0,388.41C71.46,404.203,139.996,353.198,201.866,314.109C264.13,274.771,325.951,229.823,356.839,162.963C387.789,95.97,400.047,14.685,371.666,-53.437C344.713,-118.131,259.115,-131.805,212.304,-183.963C166.749,-234.722,162.128,-317.542,103.444,-352.299C40.588,-389.527,-46.06,-410.089,-110.081,-374.903C-174.992,-339.227,-161.438,-237.867,-208.632,-180.78C-254.047,-125.845,-358.378,-123.19,-375.396,-53.974C-392.058,13.794,-327.725,74.947,-285.092,130.197C-249.7,176.063,-194.594,197.089,-151.655,235.98C-97.434,285.089,-71.431,372.623,0,388.41" fill="#4951dd"></path><path d="M1440 1208.467C1564.552 1208.095 1686.426 1173.812 1791.923 1107.6019999999999 1898.165 1040.925 2002.3229999999999 953.358 2038.0610000000001 833.125 2072.531 717.158 2011.141 598.955 1977.67 482.695 1948.671 381.969 1929.688 274.043 1855.722 199.77499999999998 1783.857 127.61700000000002 1678.0720000000001 110.642 1579.955 83.356 1483.249 56.46300000000002 1386.72 24.48199999999997 1287.859 41.85500000000002 1182.135 60.434000000000026 1082.6 108.69600000000003 1006.268 184.16899999999998 926.329 263.209 881.039 367.173 849.665 475.123 814.296 596.822 769.598 727.188 813.947 845.909 859.126 966.851 974.999 1045.01 1086.722 1109.711 1194.72 1172.255 1315.2 1208.8400000000001 1440 1208.467" fill="#757be5"></path></g><defs><mask id="SvgjsMask1035"><rect width="1440" height="560" fill="#ffffff"></rect></mask></defs></svg>