<svg xmlns="http://www.w3.org/2000/svg" version="1.1" xmlns:xlink="http://www.w3.org/1999/xlink" xmlns:svgjs="http://svgjs.com/svgjs" width="1440" height="560" preserveAspectRatio="none" viewBox="0 0 1440 560"><g mask="url(&quot;#SvgjsMask1509&quot;)" fill="none"><rect width="1440" height="560" x="0" y="0" fill="url(#SvgjsLinearGradient1510)"></rect><use xlink:href="#SvgjsSymbol1517" x="0" y="0"></use><use xlink:href="#SvgjsSymbol1517" x="720" y="0"></use></g><defs><mask id="SvgjsMask1509"><rect width="1440" height="560" fill="#ffffff"></rect></mask><linearGradient x1="15.28%" y1="-39.29%" x2="84.72%" y2="139.29%" gradientUnits="userSpaceOnUse" id="SvgjsLinearGradient1510"><stop stop-color="#0e2a47" offset="0"></stop><stop stop-color="rgba(95, 102, 225, 0.87)" offset="0.68"></stop><stop stop-color="rgba(95, 102, 225, 1)" offset="1"></stop></linearGradient><path d="M-1 0 a1 1 0 1 0 2 0 a1 1 0 1 0 -2 0z" id="SvgjsPath1515"></path><path d="M-3 0 a3 3 0 1 0 6 0 a3 3 0 1 0 -6 0z" id="SvgjsPath1516"></path><path d="M-5 0 a5 5 0 1 0 10 0 a5 5 0 1 0 -10 0z" id="SvgjsPath1511"></path><path d="M2 -2 L-2 2z" id="SvgjsPath1514"></path><path d="M6 -6 L-6 6z" id="SvgjsPath1513"></path><path d="M30 -30 L-30 30z" id="SvgjsPath1512"></path></defs><symbol id="SvgjsSymbol1517"><use xlink:href="#SvgjsPath1511" x="30" y="30" stroke="rgba(126, 134, 219, 1)"></use><use xlink:href="#SvgjsPath1512" x="30" y="90" stroke="rgba(126, 134, 219, 1)" stroke-width="3"></use><use xlink:href="#SvgjsPath1513" x="30" y="150" stroke="rgba(126, 134, 219, 1)"></use><use xlink:href="#SvgjsPath1514" x="30" y="210" stroke="rgba(126, 134, 219, 1)"></use><use xlink:href="#SvgjsPath1513" x="30" y="270" stroke="rgba(126, 134, 219, 1)"></use><use xlink:href="#SvgjsPath1513" x="30" y="330" stroke="rgba(126, 134, 219, 1)"></use><use xlink:href="#SvgjsPath1511" x="30" y="390" stroke="rgba(126, 134, 219, 1)"></use><use xlink:href="#SvgjsPath1513" x="30" y="450" stroke="rgba(126, 134, 219, 1)"></use><use xlink:href="#SvgjsPath1511" x="30" y="510" stroke="rgba(126, 134, 219, 1)"></use><use xlink:href="#SvgjsPath1513" x="30" y="570" stroke="rgba(126, 134, 219, 1)"></use><use xlink:href="#SvgjsPath1515" x="90" y="30" stroke="rgba(126, 134, 219, 1)"></use><use xlink:href="#SvgjsPath1515" x="90" y="90" stroke="rgba(126, 134, 219, 1)"></use><use xlink:href="#SvgjsPath1511" x="90" y="150" stroke="rgba(126, 134, 219, 1)"></use><use xlink:href="#SvgjsPath1512" x="90" y="210" stroke="rgba(126, 134, 219, 1)" stroke-width="3"></use><use xlink:href="#SvgjsPath1516" x="90" y="270" stroke="rgba(126, 134, 219, 1)"></use><use xlink:href="#SvgjsPath1512" x="90" y="330" stroke="rgba(126, 134, 219, 1)" stroke-width="3"></use><use xlink:href="#SvgjsPath1513" x="90" y="390" stroke="rgba(126, 134, 219, 1)"></use><use xlink:href="#SvgjsPath1513" x="90" y="450" stroke="rgba(126, 134, 219, 1)"></use><use xlink:href="#SvgjsPath1515" x="90" y="510" stroke="rgba(126, 134, 219, 1)"></use><use xlink:href="#SvgjsPath1511" x="90" y="570" stroke="rgba(126, 134, 219, 1)"></use><use xlink:href="#SvgjsPath1516" x="150" y="30" stroke="rgba(126, 134, 219, 1)"></use><use xlink:href="#SvgjsPath1515" x="150" y="90" stroke="rgba(126, 134, 219, 1)"></use><use xlink:href="#SvgjsPath1516" x="150" y="150" stroke="rgba(126, 134, 219, 1)"></use><use xlink:href="#SvgjsPath1515" x="150" y="210" stroke="rgba(126, 134, 219, 1)"></use><use xlink:href="#SvgjsPath1511" x="150" y="270" stroke="rgba(126, 134, 219, 1)"></use><use xlink:href="#SvgjsPath1511" x="150" y="330" stroke="rgba(126, 134, 219, 1)"></use><use xlink:href="#SvgjsPath1515" x="150" y="390" stroke="rgba(126, 134, 219, 1)"></use><use xlink:href="#SvgjsPath1511" x="150" y="450" stroke="rgba(126, 134, 219, 1)"></use><use xlink:href="#SvgjsPath1514" x="150" y="510" stroke="rgba(126, 134, 219, 1)"></use><use xlink:href="#SvgjsPath1514" x="150" y="570" stroke="rgba(126, 134, 219, 1)"></use><use xlink:href="#SvgjsPath1512" x="210" y="30" stroke="rgba(126, 134, 219, 1)" stroke-width="3"></use><use xlink:href="#SvgjsPath1513" x="210" y="90" stroke="rgba(126, 134, 219, 1)"></use><use xlink:href="#SvgjsPath1514" x="210" y="150" stroke="rgba(126, 134, 219, 1)"></use><use xlink:href="#SvgjsPath1511" x="210" y="210" stroke="rgba(126, 134, 219, 1)"></use><use xlink:href="#SvgjsPath1514" x="210" y="270" stroke="rgba(126, 134, 219, 1)"></use><use xlink:href="#SvgjsPath1511" x="210" y="330" stroke="rgba(126, 134, 219, 1)"></use><use xlink:href="#SvgjsPath1513" x="210" y="390" stroke="rgba(126, 134, 219, 1)"></use><use xlink:href="#SvgjsPath1513" x="210" y="450" stroke="rgba(126, 134, 219, 1)"></use><use xlink:href="#SvgjsPath1511" x="210" y="510" stroke="rgba(126, 134, 219, 1)"></use><use xlink:href="#SvgjsPath1511" x="210" y="570" stroke="rgba(126, 134, 219, 1)"></use><use xlink:href="#SvgjsPath1514" x="270" y="30" stroke="rgba(126, 134, 219, 1)"></use><use xlink:href="#SvgjsPath1513" x="270" y="90" stroke="rgba(126, 134, 219, 1)"></use><use xlink:href="#SvgjsPath1511" x="270" y="150" stroke="rgba(126, 134, 219, 1)"></use><use xlink:href="#SvgjsPath1512" x="270" y="210" stroke="rgba(126, 134, 219, 1)" stroke-width="3"></use><use xlink:href="#SvgjsPath1511" x="270" y="270" stroke="rgba(126, 134, 219, 1)"></use><use xlink:href="#SvgjsPath1514" x="270" y="330" stroke="rgba(126, 134, 219, 1)"></use><use xlink:href="#SvgjsPath1516" x="270" y="390" stroke="rgba(126, 134, 219, 1)"></use><use xlink:href="#SvgjsPath1515" x="270" y="450" stroke="rgba(126, 134, 219, 1)"></use><use xlink:href="#SvgjsPath1514" x="270" y="510" stroke="rgba(126, 134, 219, 1)"></use><use xlink:href="#SvgjsPath1512" x="270" y="570" stroke="rgba(126, 134, 219, 1)" stroke-width="3"></use><use xlink:href="#SvgjsPath1516" x="330" y="30" stroke="rgba(126, 134, 219, 1)"></use><use xlink:href="#SvgjsPath1513" x="330" y="90" stroke="rgba(126, 134, 219, 1)"></use><use xlink:href="#SvgjsPath1512" x="330" y="150" stroke="rgba(126, 134, 219, 1)" stroke-width="3"></use><use xlink:href="#SvgjsPath1514" x="330" y="210" stroke="rgba(126, 134, 219, 1)"></use><use xlink:href="#SvgjsPath1513" x="330" y="270" stroke="rgba(126, 134, 219, 1)"></use><use xlink:href="#SvgjsPath1513" x="330" y="330" stroke="rgba(126, 134, 219, 1)"></use><use xlink:href="#SvgjsPath1516" x="330" y="390" stroke="rgba(126, 134, 219, 1)"></use><use xlink:href="#SvgjsPath1513" x="330" y="450" stroke="rgba(126, 134, 219, 1)"></use><use xlink:href="#SvgjsPath1513" x="330" y="510" stroke="rgba(126, 134, 219, 1)"></use><use xlink:href="#SvgjsPath1513" x="330" y="570" stroke="rgba(126, 134, 219, 1)"></use><use xlink:href="#SvgjsPath1511" x="390" y="30" stroke="rgba(126, 134, 219, 1)"></use><use xlink:href="#SvgjsPath1511" x="390" y="90" stroke="rgba(126, 134, 219, 1)"></use><use xlink:href="#SvgjsPath1516" x="390" y="150" stroke="rgba(126, 134, 219, 1)"></use><use xlink:href="#SvgjsPath1513" x="390" y="210" stroke="rgba(126, 134, 219, 1)"></use><use xlink:href="#SvgjsPath1511" x="390" y="270" stroke="rgba(126, 134, 219, 1)"></use><use xlink:href="#SvgjsPath1514" x="390" y="330" stroke="rgba(126, 134, 219, 1)"></use><use xlink:href="#SvgjsPath1514" x="390" y="390" stroke="rgba(126, 134, 219, 1)"></use><use xlink:href="#SvgjsPath1513" x="390" y="450" stroke="rgba(126, 134, 219, 1)"></use><use xlink:href="#SvgjsPath1514" x="390" y="510" stroke="rgba(126, 134, 219, 1)"></use><use xlink:href="#SvgjsPath1515" x="390" y="570" stroke="rgba(126, 134, 219, 1)"></use><use xlink:href="#SvgjsPath1511" x="450" y="30" stroke="rgba(126, 134, 219, 1)"></use><use xlink:href="#SvgjsPath1514" x="450" y="90" stroke="rgba(126, 134, 219, 1)"></use><use xlink:href="#SvgjsPath1513" x="450" y="150" stroke="rgba(126, 134, 219, 1)"></use><use xlink:href="#SvgjsPath1512" x="450" y="210" stroke="rgba(126, 134, 219, 1)" stroke-width="3"></use><use xlink:href="#SvgjsPath1512" x="450" y="270" stroke="rgba(126, 134, 219, 1)" stroke-width="3"></use><use xlink:href="#SvgjsPath1515" x="450" y="330" stroke="rgba(126, 134, 219, 1)"></use><use xlink:href="#SvgjsPath1515" x="450" y="390" stroke="rgba(126, 134, 219, 1)"></use><use xlink:href="#SvgjsPath1516" x="450" y="450" stroke="rgba(126, 134, 219, 1)"></use><use xlink:href="#SvgjsPath1515" x="450" y="510" stroke="rgba(126, 134, 219, 1)"></use><use xlink:href="#SvgjsPath1513" x="450" y="570" stroke="rgba(126, 134, 219, 1)"></use><use xlink:href="#SvgjsPath1513" x="510" y="30" stroke="rgba(126, 134, 219, 1)"></use><use xlink:href="#SvgjsPath1515" x="510" y="90" stroke="rgba(126, 134, 219, 1)"></use><use xlink:href="#SvgjsPath1513" x="510" y="150" stroke="rgba(126, 134, 219, 1)"></use><use xlink:href="#SvgjsPath1515" x="510" y="210" stroke="rgba(126, 134, 219, 1)"></use><use xlink:href="#SvgjsPath1513" x="510" y="270" stroke="rgba(126, 134, 219, 1)"></use><use xlink:href="#SvgjsPath1516" x="510" y="330" stroke="rgba(126, 134, 219, 1)"></use><use xlink:href="#SvgjsPath1513" x="510" y="390" stroke="rgba(126, 134, 219, 1)"></use><use xlink:href="#SvgjsPath1513" x="510" y="450" stroke="rgba(126, 134, 219, 1)"></use><use xlink:href="#SvgjsPath1514" x="510" y="510" stroke="rgba(126, 134, 219, 1)"></use><use xlink:href="#SvgjsPath1511" x="510" y="570" stroke="rgba(126, 134, 219, 1)"></use><use xlink:href="#SvgjsPath1511" x="570" y="30" stroke="rgba(126, 134, 219, 1)"></use><use xlink:href="#SvgjsPath1511" x="570" y="90" stroke="rgba(126, 134, 219, 1)"></use><use xlink:href="#SvgjsPath1511" x="570" y="150" stroke="rgba(126, 134, 219, 1)"></use><use xlink:href="#SvgjsPath1513" x="570" y="210" stroke="rgba(126, 134, 219, 1)"></use><use xlink:href="#SvgjsPath1515" x="570" y="270" stroke="rgba(126, 134, 219, 1)"></use><use xlink:href="#SvgjsPath1514" x="570" y="330" stroke="rgba(126, 134, 219, 1)"></use><use xlink:href="#SvgjsPath1516" x="570" y="390" stroke="rgba(126, 134, 219, 1)"></use><use xlink:href="#SvgjsPath1514" x="570" y="450" stroke="rgba(126, 134, 219, 1)"></use><use xlink:href="#SvgjsPath1514" x="570" y="510" stroke="rgba(126, 134, 219, 1)"></use><use xlink:href="#SvgjsPath1511" x="570" y="570" stroke="rgba(126, 134, 219, 1)"></use><use xlink:href="#SvgjsPath1511" x="630" y="30" stroke="rgba(126, 134, 219, 1)"></use><use xlink:href="#SvgjsPath1515" x="630" y="90" stroke="rgba(126, 134, 219, 1)"></use><use xlink:href="#SvgjsPath1513" x="630" y="150" stroke="rgba(126, 134, 219, 1)"></use><use xlink:href="#SvgjsPath1511" x="630" y="210" stroke="rgba(126, 134, 219, 1)"></use><use xlink:href="#SvgjsPath1511" x="630" y="270" stroke="rgba(126, 134, 219, 1)"></use><use xlink:href="#SvgjsPath1511" x="630" y="330" stroke="rgba(126, 134, 219, 1)"></use><use xlink:href="#SvgjsPath1511" x="630" y="390" stroke="rgba(126, 134, 219, 1)"></use><use xlink:href="#SvgjsPath1515" x="630" y="450" stroke="rgba(126, 134, 219, 1)"></use><use xlink:href="#SvgjsPath1513" x="630" y="510" stroke="rgba(126, 134, 219, 1)"></use><use xlink:href="#SvgjsPath1515" x="630" y="570" stroke="rgba(126, 134, 219, 1)"></use><use xlink:href="#SvgjsPath1511" x="690" y="30" stroke="rgba(126, 134, 219, 1)"></use><use xlink:href="#SvgjsPath1514" x="690" y="90" stroke="rgba(126, 134, 219, 1)"></use><use xlink:href="#SvgjsPath1511" x="690" y="150" stroke="rgba(126, 134, 219, 1)"></use><use xlink:href="#SvgjsPath1514" x="690" y="210" stroke="rgba(126, 134, 219, 1)"></use><use xlink:href="#SvgjsPath1511" x="690" y="270" stroke="rgba(126, 134, 219, 1)"></use><use xlink:href="#SvgjsPath1512" x="690" y="330" stroke="rgba(126, 134, 219, 1)" stroke-width="3"></use><use xlink:href="#SvgjsPath1511" x="690" y="390" stroke="rgba(126, 134, 219, 1)"></use><use xlink:href="#SvgjsPath1513" x="690" y="450" stroke="rgba(126, 134, 219, 1)"></use><use xlink:href="#SvgjsPath1513" x="690" y="510" stroke="rgba(126, 134, 219, 1)"></use><use xlink:href="#SvgjsPath1512" x="690" y="570" stroke="rgba(126, 134, 219, 1)" stroke-width="3"></use></symbol></svg>